# AST/ASF file generated using VICON BodyLanguage
# -----------------------------------------------
:version 1.10
:name VICON
:units
  mass 1.0
  length 0.45
  angle deg
:documentation
   .ast/.asf automatically generated from VICON data using
   VICON BodyBuilder and BodyLanguage model FoxedUp or BRILLIANT.MOD
:root
   order TX TY TZ RX RY RZ
   axis XYZ
   position 0 0 0  
   orientation 0 0 0 
:bonedata
  begin
     id 1 
     name lhipjoint
     direction 0.603808 -0.713975 0.35448 
     length 2.2025 
     axis 0 0 0  XYZ
  end
  begin
     id 2 
     name lfemur
     direction 0.34202 -0.939693 0  
     length 6.55877  
     axis 0 0 20  XYZ
    dof rx ry rz
    limits (-160.0 20.0)
           (-70.0 70.0)
           (-60.0 70.0)
  end
  begin
     id 3 
     name ltibia
     direction 0.34202 -0.939693 0   
     length 6.80302   
     axis 0 0 20   XYZ
    dof rx
    limits (-10.0 170.0)
  end
  begin
     id 4 
     name lfoot
     direction 0.091848 -0.25235 0.963267   
     length 2.03446   
     axis -90 7.62852e-016 20   XYZ
    dof rx rz
    limits (-45.0 90.0)
           (-70.0 20.0)
  end
  begin
     id 5 
     name ltoes
     direction 1.53608e-011 -4.21925e-011 1   
     length 1.02033   
     axis -90 7.62852e-016 20   XYZ
    dof rx
    limits (-90.0 20.0)
  end
  begin
     id 6 
     name rhipjoint
     direction -0.587285 -0.724947 0.359928   
     length 2.16916  
     axis 0 0 0  XYZ 
  end
  begin
     id 7 
     name rfemur
     direction -0.34202 -0.939693 0   
     length 6.43173   
     axis 0 0 -20   XYZ
    dof rx ry rz
    limits (-160.0 20.0)
           (-70.0 70.0)
           (-70.0 60.0)
  end
  begin
     id 8 
     name rtibia
     direction -0.34202 -0.939693 0   
     length 6.70662   
     axis 0 0 -20   XYZ
    dof rx
    limits (-10.0 170.0)
 end
 begin
     id 9 
     name rfoot
     direction -0.11854 -0.325686 0.938018   
     length 2.0773  
     axis -90 -7.62852e-016 -20   XYZ
    dof rx rz
    limits (-45.0 90.0)
           (-20.0 70.0)
  end
  begin
     id 10 
     name rtoes
     direction -1.53547e-011 -4.21838e-011 1   
     length 1.03267   
     axis -90 -7.62852e-016 -20   XYZ
    dof rx
    limits (-90.0 20.0)
  end
  begin
     id 11 
     name lowerback
     direction -0.0286554 0.999539 0.0100613   
     length 2.08751   
     axis 0 0 0   XYZ
    dof rx ry rz
    limits (-20.0 45.0)
           (-30.0 30.0)
           (-30.0 30.0)
  end
  begin
     id 12 
     name upperback
     direction 0.0227093 0.999705 -0.00860929   
     length 2.08517   
     axis 0 0 0   XYZ
    dof rx ry rz
    limits (-20.0 45.0)
           (-30.0 30.0)
           (-30.0 30.0)
  end
  begin
     id 13 
     name thorax
     direction 0.0351627 0.999285 -0.013892   
     length 2.08412   
     axis 0 0 0   XYZ
    dof rx ry rz
    limits (-20.0 45.0)
           (-30.0 30.0)
           (-30.0 30.0)
  end
  begin
     id 14 
     name lowerneck
     direction -0.0696283 0.997344 0.0213922   
     length 1.44164   
     axis 0 0 0   XYZ
    dof rx ry rz
    limits (-20.0 45.0)
           (-30.0 30.0)
           (-30.0 30.0)
  end
  begin
     id 15 
     name upperneck
     direction 0.0531 0.990412 -0.127531   
     length 1.45022   
     axis 0 0 0   XYZ
    dof rx ry rz
    limits (-20.0 45.0)
           (-30.0 30.0)
           (-30.0 30.0)
  end
  begin
     id 16
     name head
     direction 0.0188154 0.998548 -0.0504727  
     length 1.45845  
     axis 0 0 0   XYZ
    dof rx ry rz
    limits (-20.0 45.0)
           (-30.0 30.0)
           (-30.0 30.0)
  end
  begin
     id 17 
     name lclavicle
     direction 0.961559 0.260051 0.088188  
     length 2.86057  
     axis 0 0 0   XYZ
    dof ry rz
    limits (-20.0 10.0)
           (0.0 20.0)
  end
  begin
     id 18 
     name lhumerus
     direction 1 -4.48959e-011 2.88185e-027   
     length 4.36901   
     axis 180 -30 -90   XYZ
    dof rx ry rz
    limits (-60.0 90.0)
           (-90.0 90.0)
           (-90.0 90.0)
  end
  begin
     id 19
     name lradius
     direction 1 -4.48965e-011 -3.92618e-028   
     length 3.21737   
     axis 180 -30 -90   XYZ
    dof rx
    limits (-10.0 170.0)
  end
  begin
     id 20
     name lwrist
     direction 1 -4.49037e-011 2.57246e-027   
     length 1.60869   
     axis -1.61769e-015 90 90   XYZ
    dof ry
    limits (-180.0 0.0)
 end
  begin
     id 21 
     name lhand
     direction 1 -4.48807e-011 5.12958e-027   
     length 0.564313   
     axis -3.27988e-015 90 90   XYZ
    dof rx rz
    limits (-90.0 90.0)
           (-45.0 45.0)
  end
  begin
     id 22 
     name lfingers
     direction 1 -4.48879e-011 1.02687e-026   
     length 0.454963   
     axis -6.5598e-015 90 90   XYZ
    dof rx
    limits (0.0 90.0)
  end
  begin
     id 23
     name lthumb
     direction 0.707107 -6.3475e-011 0.707107   
     length 0.653239   
     axis -90 45 2.19363e-014   XYZ
    dof rx rz
    limits (-45.0 45.0)
           (-45.0 45.0)
  end
  begin
     id 24 
     name rclavicle
     direction -0.954677 0.253915 0.155304   
     length 3.11497  
     axis 0 0 0   XYZ 
    dof ry rz
    limits (-10.0 20.0)
           (-20.0 0.0)
  end
  begin
     id 25 
     name rhumerus
     direction -1 -4.48958e-011 -8.20169e-028  
     length 4.34118   
     axis 180 30 90   XYZ
    dof rx ry rz
    limits (-90.0 60.0)
           (-90.0 90.0)
           (-90.0 90.0)
  end
  begin
     id 26 
     name rradius
     direction -1 -4.48978e-011 1.5676e-027   
     length 3.09531   
     axis 180 30 90   XYZ
    dof rx
    limits (-10.0 170.0)
  end
  begin
     id 27 
     name rwrist
     direction -1 -4.49001e-011 2.57123e-027   
     length 1.54765   
     axis -1.61769e-015 -90 -90   XYZ
    dof ry
    limits (-180.0 0.0)
  end
  begin
     id 28
     name rhand
     direction -1 -4.48847e-011 5.13225e-027   
     length 0.597446   
     axis -3.27988e-015 -90 -90   XYZ
    dof rx rz
    limits (-90.0 90.0)
           (-45.0 45.0)
  end
  begin
     id 29
     name rfingers
     direction -1 -4.49094e-011 1.02974e-026   
     length 0.481677   
     axis -6.5598e-015 -90 -90   XYZ
    dof rx
    limits (0.0 90.0)
  end
  begin
     id 30
     name rthumb
     direction -0.707107 -6.34859e-011 0.707107   
     length 0.691594   
     axis -90 -45 -2.19363e-014   XYZ
    dof rx rz
    limits (-45.0 45.0)
           (-45.0 45.0)
  end
:hierarchy
  begin
    root lhipjoint rhipjoint lowerback
    lhipjoint lfemur
    lfemur ltibia
    ltibia lfoot
    lfoot ltoes
    rhipjoint rfemur
    rfemur rtibia
    rtibia rfoot
    rfoot rtoes
    lowerback upperback
    upperback thorax
    thorax lowerneck lclavicle rclavicle
    lowerneck upperneck
    upperneck head
    lclavicle lhumerus
    lhumerus lradius
    lradius lwrist
    lwrist lhand lthumb
    lhand lfingers
    rclavicle rhumerus
    rhumerus rradius
    rradius rwrist
    rwrist rhand rthumb
    rhand rfingers
  end

#!OML:ASF I:\Acrobat_Osman\acrobat\cartwheel_test 2\Patient 1\Session 1\acrobat.ASF
:FULLY-SPECIFIED
:DEGREES
1977
root 5.36061 27.1363 27.2024 175.751 -193.083 -360.288
lowerback -7.1471 -0.622463 -4.21293
upperback -9.91891 -0.593446 1.27507
thorax -6.34244 0.177622 3.67201
lowerneck -18.6714 -5.70416 -7.55169
upperneck -5.79482 -5.65614 5.37433
head 1.75496 -2.26174 2.71261
rclavicle -2.02263e-014 2.13694e-015
rhumerus 63.4336 -12.5117 -53.1092
rradius 62.5016
rwrist -38.0596
rhand -59.8759 -106.662
rfingers 7.12502
rthumb -32.0337 79.463
lclavicle -2.02263e-014 2.13694e-015
lhumerus -110.628 166.255 237.244
lradius 66.96
lwrist -281.167
lhand -38.6637 -457.325
lfingers 7.12502
lthumb -11.6794 953.02
rfemur -12.9129 3.90847 24.5007
rtibia 43.6163
rfoot -12.0235 -21.7461
rtoes 42.9749
lfemur 165.397 177.969 156.941
ltibia 45.4184
lfoot 2.57775 -13.1878
ltoes -52.2
1978
root 5.37558 27.2437 27.1669 176.326 -193.399 -360.279
lowerback -6.84745 -0.671088 -4.23146
upperback -10.0178 -0.687613 1.1841
thorax -6.6116 0.134103 3.58873
lowerneck -18.445 -5.6813 -7.61471
upperneck -5.82792 -5.64048 5.35698
head 1.70501 -2.26102 2.72209
rclavicle -3.22652e-014 -1.0958e-014
rhumerus 64.4027 -13.4312 -52.4212
rradius 61.5318
rwrist -38.7546
rhand -59.8906 -106.801
rfingers 7.12502
rthumb -32.0477 79.6042
lclavicle -3.22652e-014 -1.0958e-014
lhumerus -109.68 165.392 236.48
lradius 65.9781
lwrist -280.777
lhand -38.6526 -456.981
lfingers 7.12502
lthumb -11.6687 953.364
rfemur -13.0257 3.73046 24.5239
rtibia 43.6689
rfoot -12.2453 -21.5858
rtoes 43.0169
lfemur 165.33 177.931 157.002
ltibia 45.4543
lfoot 2.30986 -13.0662
ltoes -52.2185
1979
root 5.38856 27.3532 27.1299 176.904 -193.638 -360.17
lowerback -6.63938 -0.6884 -4.30089
upperback -9.93091 -0.731739 1.07657
thorax -6.63081 0.104157 3.51586
lowerneck -18.183 -5.73193 -7.2271
upperneck -6.44022 -5.76797 4.88411
head 1.41956 -2.32262 2.48223
rclavicle -3.30417e-014 -1.34739e-014
rhumerus 65.6066 -14.4899 -51.9672
rradius 60.5371
rwrist -39.2468
rhand -60.0009 -107.037
rfingers 7.12502
rthumb -32.1527 79.8619
lclavicle -3.30417e-014 -1.34739e-014
lhumerus -108.056 164.781 236.413
lradius 64.6717
lwrist -281.239
lhand -38.5485 -456.582
lfingers 7.12502
lthumb -11.5682 953.757
rfemur -13.1024 3.58741 24.4361
rtibia 43.7127
rfoot -12.5161 -21.3609
rtoes 43.3127
lfemur 165.287 177.859 156.967
ltibia 45.4925
lfoot 1.96371 -13.1588
ltoes -52.3403
1980
root 5.40004 27.4617 27.0891 177.482 -193.803 -360.136
lowerback -6.44227 -0.68985 -4.27448
upperback -9.89797 -0.754511 1.01538
thorax -6.70459 0.0843079 3.43865
lowerneck -18.3689 -5.74786 -7.22196
upperneck -6.43843 -5.77429 4.86304
head 1.45085 -2.32223 2.47131
rclavicle 2.05152e-015 -1.38559e-014
rhumerus 66.8006 -15.4041 -51.7271
rradius 59.4735
rwrist -39.6464
rhand -60.0883 -106.994
rfingers 7.12502
rthumb -32.2359 79.8358
lclavicle 2.05152e-015 -1.38559e-014
lhumerus -106.569 164.093 236.436
lradius 63.385
lwrist -281.533
lhand -38.4537 -456.23
lfingers 7.12502
lthumb -11.4769 954.104
rfemur -13.1655 3.47673 24.4439
rtibia 43.7529
rfoot -12.6609 -21.1776
rtoes 43.2166
lfemur 165.22 177.673 157.013
ltibia 45.5451
lfoot 1.56957 -13.3133
ltoes -52.7623
1981
root 5.40987 27.5651 27.045 178.008 -193.956 -360.183
lowerback -6.1402 -0.66321 -4.15632
upperback -9.93794 -0.747328 0.956074
thorax -6.92079 0.079254 3.31383
lowerneck -18.5159 -5.70728 -7.16685
upperneck -6.42034 -5.72049 4.81522
head 1.47438 -2.29626 2.44738
rclavicle -5.43241e-014 -2.38045e-014
rhumerus 67.8598 -16.3837 -51.5371
rradius 58.4923
rwrist -40.18
rhand -60.0413 -106.233
rfingers 7.12502
rthumb -32.1912 79.0658
lclavicle -5.43241e-014 -2.38045e-014
lhumerus -105.01 163.466 236.512
lradius 61.8538
lwrist -281.555
lhand -38.5233 -455.529
lfingers 7.12502
lthumb -11.544 954.809
rfemur -13.1817 3.50821 24.5716
rtibia 43.7939
rfoot -12.9629 -21.0654
rtoes 43.3977
lfemur 165.069 177.633 157.172
ltibia 45.6085
lfoot 1.29854 -13.6666
ltoes -52.229
1982
root 5.4153 27.6687 26.998 178.513 -194.031 -360.166
lowerback -5.77243 -0.654942 -4.01408
upperback -10.0653 -0.771253 0.864108
thorax -7.26901 0.0617666 3.14232
lowerneck -18.5284 -5.62174 -7.17958
upperneck -6.31314 -5.61767 4.90068
head 1.51173 -2.25103 2.48673
rclavicle -2.26366e-014 -1.05604e-014
rhumerus 68.7931 -17.2396 -51.3236
rradius 57.5055
rwrist -40.9061
rhand -60.0232 -105.626
rfingers 7.12502
rthumb -32.174 78.4551
lclavicle -2.26366e-014 -1.05604e-014
lhumerus -102.741 164.305 237.861
lradius 59.3214
lwrist -283.486
lhand -38.596 -454.563
lfingers 7.12502
lthumb -11.614 955.779
rfemur -13.1373 3.75688 24.632
rtibia 43.8626
rfoot -13.7231 -20.8421
rtoes 43.3392
lfemur 165.031 177.523 157.23
ltibia 45.6954
lfoot 0.871915 -13.9686
ltoes -52.1476
1983
root 5.41228 27.7748 26.95 179.046 -193.89 -360.025
lowerback -5.50682 -0.666475 -3.89422
upperback -10.2823 -0.817068 0.78314
thorax -7.65797 0.0404155 2.99465
lowerneck -18.2495 -5.48032 -7.26438
upperneck -6.16776 -5.46509 5.12005
head 1.51817 -2.18873 2.59247
rclavicle 3.77815e-014 1.47846e-014
rhumerus 69.7774 -17.5675 -51.3074
rradius 56.3042
rwrist -41.4552
rhand -60.1104 -105.563
rfingers 7.12502
rthumb -32.2569 78.4085
lclavicle 3.77815e-014 1.47846e-014
lhumerus -100.779 165.029 238.896
lradius 56.5629
lwrist -285.286
lhand -38.5584 -453.636
lfingers 7.12502
lthumb -11.5778 956.704
rfemur -13.0617 3.7731 24.5135
rtibia 43.957
rfoot -14.6646 -20.3483
rtoes 42.3763
lfemur 165.095 177.243 157.105
ltibia 45.7945
lfoot 0.506849 -14.5432
ltoes -52.0478
